<svg width="127" height="25" viewBox="0 0 127 25" fill="none" xmlns="http://www.w3.org/2000/svg">
<g filter="url(#filter0_d_739_380)">
<path d="M14.8083 13.056H9.60217L8.69299 16H4.63416L10.4139 0.240845H13.9857L19.8088 16H15.7283L14.8083 13.056ZM10.5114 10.1228H13.8991L12.1998 4.65686L10.5114 10.1228Z" fill="white"/>
<path d="M34.1284 16H30.351L24.766 6.19381V16H20.9669V0.240845H24.766L30.3401 10.047V0.240845H34.1284V16Z" fill="white"/>
<path d="M45.6771 13.056H40.471L39.5618 16H35.503L41.2828 0.240845H44.8545L50.6776 16H46.5971L45.6771 13.056ZM41.3802 10.1228H44.7679L43.0686 4.65686L41.3802 10.1228Z" fill="white"/>
<path d="M55.6348 13.0776H62.248V16H51.8357V0.240845H55.6348V13.0776Z" fill="white"/>
<path d="M66.5883 7.08134L69.489 0.240845H73.5911L68.5148 10.3392V16H64.6617V10.3392L59.5962 0.240845H63.6767L66.5883 7.08134Z" fill="white"/>
<path d="M87.3046 3.17403H82.5747V16H78.7756V3.17403H74.1323V0.240845H87.3046V3.17403Z" fill="white"/>
<path d="M92.9653 16H89.177V0.240845H92.9653V16Z" fill="white"/>
<path d="M108.356 10.6639C108.306 11.7607 108.01 12.7312 107.469 13.5755C106.928 14.4125 106.166 15.0619 105.185 15.5237C104.211 15.9855 103.096 16.2164 101.841 16.2164C99.7697 16.2164 98.139 15.5418 96.9484 14.1924C95.7578 12.8431 95.1625 10.9381 95.1625 8.47758V7.69828C95.1625 6.15412 95.4295 4.80478 95.9634 3.65027C96.5046 2.48854 97.2803 1.59379 98.2905 0.966024C99.3007 0.331041 100.47 0.0135498 101.797 0.0135498C103.709 0.0135498 105.246 0.51865 106.408 1.52885C107.57 2.53183 108.23 3.91725 108.389 5.6851H104.601C104.572 4.72541 104.33 4.03631 103.875 3.6178C103.421 3.19929 102.728 2.99003 101.797 2.99003C100.852 2.99003 100.159 3.3436 99.7192 4.05074C99.279 4.75788 99.0481 5.88714 99.0265 7.43852V8.55335C99.0265 10.2346 99.2357 11.436 99.6543 12.1576C100.08 12.8792 100.809 13.24 101.841 13.24C102.714 13.24 103.381 13.0343 103.843 12.623C104.305 12.2117 104.55 11.5587 104.579 10.6639H108.356Z" fill="white"/>
<path d="M118.282 11.8112C118.282 11.2556 118.083 10.8227 117.686 10.5124C117.297 10.2021 116.608 9.88104 115.619 9.54911C114.63 9.21719 113.822 8.89609 113.195 8.58582C111.152 7.58283 110.131 6.20463 110.131 4.45121C110.131 3.57811 110.384 2.80964 110.889 2.14579C111.401 1.47473 112.123 0.9552 113.054 0.587199C113.985 0.211982 115.031 0.0243734 116.193 0.0243734C117.326 0.0243734 118.339 0.226413 119.234 0.630493C120.136 1.03457 120.836 1.61183 121.334 2.36226C121.832 3.10548 122.081 3.95694 122.081 4.91663H118.292C118.292 4.27443 118.094 3.77654 117.697 3.42297C117.307 3.0694 116.777 2.89262 116.106 2.89262C115.428 2.89262 114.89 3.04415 114.493 3.34721C114.104 3.64305 113.909 4.02188 113.909 4.48368C113.909 4.88776 114.125 5.25577 114.558 5.58769C114.991 5.91239 115.753 6.25153 116.842 6.6051C117.932 6.95146 118.826 7.32667 119.526 7.73075C121.229 8.71209 122.081 10.065 122.081 11.7896C122.081 13.1678 121.561 14.2502 120.522 15.0367C119.483 15.8232 118.058 16.2164 116.247 16.2164C114.97 16.2164 113.811 15.9891 112.772 15.5345C111.741 15.0727 110.961 14.445 110.435 13.6512C109.915 12.8503 109.655 11.9303 109.655 10.8912H113.465C113.465 11.7355 113.682 12.3596 114.115 12.7637C114.555 13.1606 115.265 13.359 116.247 13.359C116.875 13.359 117.369 13.2255 117.73 12.9585C118.098 12.6843 118.282 12.3019 118.282 11.8112Z" fill="white"/>
</g>
<defs>
<filter id="filter0_d_739_380" x="0.634155" y="0.0135498" width="125.447" height="24.2029" filterUnits="userSpaceOnUse" color-interpolation-filters="sRGB">
<feFlood flood-opacity="0" result="BackgroundImageFix"/>
<feColorMatrix in="SourceAlpha" type="matrix" values="0 0 0 0 0 0 0 0 0 0 0 0 0 0 0 0 0 0 127 0" result="hardAlpha"/>
<feOffset dy="4"/>
<feGaussianBlur stdDeviation="2"/>
<feComposite in2="hardAlpha" operator="out"/>
<feColorMatrix type="matrix" values="0 0 0 0 0 0 0 0 0 0 0 0 0 0 0 0 0 0 0.25 0"/>
<feBlend mode="normal" in2="BackgroundImageFix" result="effect1_dropShadow_739_380"/>
<feBlend mode="normal" in="SourceGraphic" in2="effect1_dropShadow_739_380" result="shape"/>
</filter>
</defs>
</svg>
